<svg width="25" height="24" viewBox="0 0 25 24" fill="none" xmlns="http://www.w3.org/2000/svg">
<g id="material-symbols:explore">
<path id="Vector" d="M7 17.5L14.5 14L18 6.5L10.5 10L7 17.5ZM12.5 13C12.2167 13 11.979 12.904 11.787 12.712C11.595 12.52 11.4993 12.2827 11.5 12C11.5 11.7167 11.596 11.479 11.788 11.287C11.98 11.095 12.2173 10.9993 12.5 11C12.7833 11 13.021 11.096 13.213 11.288C13.405 11.48 13.5007 11.7173 13.5 12C13.5 12.2833 13.404 12.521 13.212 12.713C13.02 12.905 12.7827 13.0007 12.5 13ZM12.5 22C11.1167 22 9.81667 21.7373 8.6 21.212C7.38333 20.6867 6.325 19.9743 5.425 19.075C4.525 18.175 3.81267 17.1167 3.288 15.9C2.76333 14.6833 2.50067 13.3833 2.5 12C2.5 10.6167 2.76267 9.31667 3.288 8.1C3.81333 6.88333 4.52567 5.825 5.425 4.925C6.325 4.025 7.38333 3.31267 8.6 2.788C9.81667 2.26333 11.1167 2.00067 12.5 2C13.8833 2 15.1833 2.26267 16.4 2.788C17.6167 3.31333 18.675 4.02567 19.575 4.925C20.475 5.825 21.1877 6.88333 21.713 8.1C22.2383 9.31667 22.5007 10.6167 22.5 12C22.5 13.3833 22.2373 14.6833 21.712 15.9C21.1867 17.1167 20.4743 18.175 19.575 19.075C18.675 19.975 17.6167 20.6877 16.4 21.213C15.1833 21.7383 13.8833 22.0007 12.5 22Z" fill="white"/>
</g>
</svg>
