<svg width="375" height="34" viewBox="0 0 375 34" fill="none" xmlns="http://www.w3.org/2000/svg">
<g clip-path="url(#clip0_200_2245)">
<path d="M15.4922 14.3711C15.9922 14.7148 16.3984 15.1484 16.7109 15.6719C17.0234 16.1875 17.1797 16.7969 17.1797 17.5C17.1797 18.3438 17 19.0586 16.6406 19.6445C16.2891 20.2227 15.7812 20.6797 15.1172 21.0156C14.4141 21.375 13.6016 21.6289 12.6797 21.7773C11.7656 21.9258 10.6875 22 9.44531 22H0.808594V21.0859C1.05078 21.0625 1.35547 21.0273 1.72266 20.9805C2.08984 20.9336 2.34766 20.8789 2.49609 20.8164C2.78516 20.6992 2.98047 20.5469 3.08203 20.3594C3.19141 20.1641 3.24609 19.9141 3.24609 19.6094V7.89062C3.24609 7.60938 3.20312 7.375 3.11719 7.1875C3.03125 7 2.82422 6.83594 2.49609 6.69531C2.25391 6.59375 1.97266 6.51172 1.65234 6.44922C1.33203 6.37891 1.05078 6.32422 0.808594 6.28516V5.37109H9.84375C12.1172 5.37109 13.7578 5.68359 14.7656 6.30859C15.7734 6.93359 16.2773 7.85547 16.2773 9.07422C16.2773 9.63672 16.1641 10.1328 15.9375 10.5625C15.7109 10.9844 15.3867 11.3516 14.9648 11.6641C14.582 11.9531 14.125 12.2031 13.5938 12.4141C13.0625 12.625 12.4922 12.8008 11.8828 12.9414V13.1641C12.4922 13.2266 13.125 13.3633 13.7812 13.5742C14.4375 13.7773 15.0078 14.043 15.4922 14.3711ZM11.7188 9.36719C11.7188 8.44531 11.457 7.72656 10.9336 7.21094C10.418 6.69531 9.64062 6.4375 8.60156 6.4375C8.45312 6.4375 8.25781 6.44531 8.01562 6.46094C7.78125 6.46875 7.57812 6.47656 7.40625 6.48438V12.6484H8.01562C9.28125 12.6484 10.2148 12.3555 10.8164 11.7695C11.418 11.1758 11.7188 10.375 11.7188 9.36719ZM12.5391 17.3477C12.5391 16.1914 12.1953 15.3047 11.5078 14.6875C10.8203 14.0703 9.83203 13.7617 8.54297 13.7617C8.39453 13.7617 8.19531 13.7695 7.94531 13.7852C7.70312 13.793 7.52344 13.8008 7.40625 13.8086V19.8906C7.47656 20.1797 7.69531 20.4258 8.0625 20.6289C8.42969 20.8242 8.875 20.9219 9.39844 20.9219C10.3281 20.9219 11.082 20.6094 11.6602 19.9844C12.2461 19.3594 12.5391 18.4805 12.5391 17.3477ZM34.1602 21.7539L28.5703 22.0938L28.3945 21.9297V20.3945H28.3242C28.0586 20.6367 27.7969 20.875 27.5391 21.1094C27.2891 21.3359 26.9883 21.543 26.6367 21.7305C26.2383 21.9414 25.8594 22.0977 25.5 22.1992C25.1484 22.3008 24.6328 22.3516 23.9531 22.3516C22.7734 22.3516 21.8672 21.9961 21.2344 21.2852C20.6094 20.5742 20.2969 19.5703 20.2969 18.2734V13C20.2969 12.6953 20.2383 12.4492 20.1211 12.2617C20.0039 12.0664 19.8477 11.8945 19.6523 11.7461C19.4961 11.6289 19.293 11.5469 19.043 11.5C18.793 11.4453 18.5664 11.4102 18.3633 11.3945V10.5391L24.0469 10.2344L24.1758 10.4102V18.2031C24.1758 19.0078 24.3281 19.6016 24.6328 19.9844C24.9453 20.3672 25.3711 20.5586 25.9102 20.5586C26.4648 20.5586 26.9609 20.4141 27.3984 20.125C27.8438 19.8359 28.168 19.5273 28.3711 19.1992V12.8828C28.3711 12.6172 28.3203 12.3789 28.2188 12.168C28.1172 11.957 27.9688 11.7852 27.7734 11.6523C27.6328 11.5586 27.4297 11.4961 27.1641 11.4648C26.9062 11.4336 26.6406 11.4102 26.3672 11.3945V10.5391L32.0508 10.2344L32.2266 10.4102V19.457C32.2266 19.7305 32.2812 19.9648 32.3906 20.1602C32.5 20.3477 32.6602 20.5078 32.8711 20.6406C33.0195 20.7344 33.2109 20.8008 33.4453 20.8398C33.6875 20.8711 33.9258 20.8906 34.1602 20.8984V21.7539ZM48.3516 11.2305C48 11.2852 47.6562 11.418 47.3203 11.6289C46.9922 11.8398 46.7188 12.168 46.5 12.6133C45.8281 14.0352 45.1367 15.5508 44.4258 17.1602C43.7148 18.7617 42.9258 20.4961 42.0586 22.3633C41.5742 23.4102 41.1055 24.2461 40.6523 24.8711C40.1992 25.4961 39.7734 25.9766 39.375 26.3125C39 26.625 38.6289 26.8516 38.2617 26.9922C37.8945 27.1328 37.5234 27.2031 37.1484 27.2031C36.4062 27.2031 35.8047 26.9961 35.3438 26.582C34.8906 26.168 34.6641 25.7031 34.6641 25.1875C34.6641 24.9688 34.6875 24.7656 34.7344 24.5781C34.7891 24.3906 34.8984 24.1953 35.0625 23.9922C35.1875 23.8203 35.3789 23.6719 35.6367 23.5469C35.9023 23.4297 36.1992 23.3711 36.5273 23.3711C36.9648 23.3711 37.3828 23.5234 37.7812 23.8281C38.1797 24.1328 38.5938 24.5547 39.0234 25.0938C39.2812 24.8359 39.5977 24.4492 39.9727 23.9336C40.3555 23.4258 40.6367 22.9023 40.8164 22.3633C39.8867 20.4102 39.0625 18.7188 38.3438 17.2891C37.625 15.8516 36.8203 14.25 35.9297 12.4844C35.7344 12.1094 35.4727 11.8203 35.1445 11.6172C34.8164 11.4062 34.4688 11.2773 34.1016 11.2305V10.375H41.2734V11.2305C41.0078 11.2383 40.6992 11.2969 40.3477 11.4062C40.0039 11.5156 39.832 11.6562 39.832 11.8281C39.832 11.8906 39.8438 11.9609 39.8672 12.0391C39.8906 12.1094 39.9336 12.2148 39.9961 12.3555C40.2617 12.9023 40.6367 13.6641 41.1211 14.6406C41.6133 15.6094 42.1836 16.7461 42.832 18.0508C43.3164 16.9414 43.7266 15.9883 44.0625 15.1914C44.4062 14.3867 44.7383 13.5977 45.0586 12.8242C45.1367 12.6289 45.1797 12.4766 45.1875 12.3672C45.2031 12.25 45.2109 12.1719 45.2109 12.1328C45.2109 11.9922 45.1406 11.8711 45 11.7695C44.8672 11.6602 44.707 11.5664 44.5195 11.4883C44.3242 11.4102 44.1367 11.3516 43.957 11.3125C43.7773 11.2734 43.6289 11.2461 43.5117 11.2305V10.375H48.3516V11.2305ZM66.668 11.7578C67.2461 12.2969 67.6875 12.9414 67.9922 13.6914C68.2969 14.4414 68.4492 15.2539 68.4492 16.1289C68.4492 16.9961 68.2969 17.8164 67.9922 18.5898C67.6953 19.3555 67.2578 20.0117 66.6797 20.5586C66.0625 21.1445 65.3242 21.5938 64.4648 21.9062C63.6133 22.2188 62.6367 22.375 61.5352 22.375C60.582 22.375 59.7031 22.2383 58.8984 21.9648C58.1016 21.6914 57.3945 21.2812 56.7773 20.7344C56.1836 20.2109 55.7148 19.5664 55.3711 18.8008C55.0273 18.0273 54.8555 17.1641 54.8555 16.2109C54.8555 15.2734 55.0039 14.4414 55.3008 13.7148C55.6055 12.9805 56.0586 12.3281 56.6602 11.7578C57.2383 11.2109 57.9492 10.7891 58.793 10.4922C59.6445 10.1875 60.5938 10.0352 61.6406 10.0352C62.7344 10.0352 63.6953 10.1875 64.5234 10.4922C65.3594 10.7891 66.0742 11.2109 66.668 11.7578ZM63.668 19.8789C63.8398 19.4414 63.9648 18.9102 64.043 18.2852C64.1289 17.6602 64.1719 16.9336 64.1719 16.1055C64.1719 15.5586 64.1328 14.9336 64.0547 14.2305C63.9766 13.5273 63.8594 12.9727 63.7031 12.5664C63.5156 12.0742 63.2539 11.6875 62.918 11.4062C62.5898 11.125 62.1719 10.9844 61.6641 10.9844C61.1094 10.9844 60.6641 11.1367 60.3281 11.4414C60 11.7461 59.7461 12.1406 59.5664 12.625C59.4023 13.0703 59.2891 13.5938 59.2266 14.1953C59.1641 14.7891 59.1328 15.4102 59.1328 16.0586C59.1328 16.9102 59.1602 17.6172 59.2148 18.1797C59.2695 18.7344 59.4023 19.293 59.6133 19.8555C59.793 20.3398 60.0508 20.7227 60.3867 21.0039C60.7227 21.2852 61.1484 21.4258 61.6641 21.4258C62.1328 21.4258 62.5352 21.2969 62.8711 21.0391C63.207 20.7734 63.4727 20.3867 63.668 19.8789ZM85.4297 22H78.375V21.1445C78.5234 21.1289 78.7031 21.1094 78.9141 21.0859C79.125 21.0625 79.2852 21.0234 79.3945 20.9688C79.5586 20.8828 79.6758 20.7578 79.7461 20.5938C79.8164 20.4297 79.8516 20.1875 79.8516 19.8672V14.3828C79.8516 13.5859 79.7031 12.9883 79.4062 12.5898C79.1172 12.1836 78.6875 11.9805 78.1172 11.9805C77.8047 11.9805 77.5117 12.0273 77.2383 12.1211C76.9727 12.2148 76.7109 12.3516 76.4531 12.5312C76.2266 12.6875 76.043 12.8477 75.9023 13.0117C75.7695 13.1758 75.6562 13.3203 75.5625 13.4453V19.7383C75.5625 20.0117 75.6016 20.2422 75.6797 20.4297C75.7578 20.6094 75.8867 20.7461 76.0664 20.8398C76.1914 20.9102 76.3477 20.9727 76.5352 21.0273C76.7227 21.082 76.9062 21.1211 77.0859 21.1445V22H69.9609V21.1445C70.1562 21.1289 70.3516 21.1094 70.5469 21.0859C70.75 21.0547 70.9219 21.0156 71.0625 20.9688C71.3125 20.8828 71.4844 20.75 71.5781 20.5703C71.6719 20.3906 71.7188 20.1562 71.7188 19.8672V13.0469C71.7188 12.8047 71.6562 12.5664 71.5312 12.332C71.4062 12.0977 71.2422 11.9062 71.0391 11.7578C70.8984 11.6641 70.7188 11.5859 70.5 11.5234C70.2891 11.4609 70.0547 11.418 69.7969 11.3945V10.5391L75.3867 10.2344L75.5625 10.4102V12.1094H75.6094C75.8281 11.9141 76.0938 11.6797 76.4062 11.4062C76.7188 11.1328 77.0078 10.9102 77.2734 10.7383C77.5625 10.5508 77.9414 10.3906 78.4102 10.2578C78.8789 10.125 79.3789 10.0586 79.9102 10.0586C81.1836 10.0586 82.1367 10.4219 82.7695 11.1484C83.4102 11.8672 83.7305 12.8242 83.7305 14.0195V19.7617C83.7305 20.0508 83.7734 20.2812 83.8594 20.4531C83.9453 20.625 84.1055 20.7617 84.3398 20.8633C84.4648 20.918 84.6172 20.9727 84.7969 21.0273C84.9844 21.082 85.1953 21.1211 85.4297 21.1445V22ZM108.398 16.668L108.07 22H92.7539V21.0859C93.0273 21.0625 93.3477 21.0273 93.7148 20.9805C94.082 20.9258 94.3242 20.875 94.4414 20.8281C94.7227 20.7188 94.918 20.5664 95.0273 20.3711C95.1367 20.1758 95.1914 19.9258 95.1914 19.6211V7.89062C95.1914 7.60938 95.1484 7.37891 95.0625 7.19922C94.9766 7.01172 94.7695 6.84375 94.4414 6.69531C94.1992 6.58594 93.9062 6.5 93.5625 6.4375C93.2266 6.36719 92.957 6.31641 92.7539 6.28516V5.37109H101.883V6.28516C101.633 6.30859 101.336 6.34375 100.992 6.39062C100.656 6.42969 100.363 6.48828 100.113 6.56641C99.8086 6.66797 99.6055 6.82812 99.5039 7.04688C99.4023 7.25781 99.3516 7.5 99.3516 7.77344V18.707C99.3516 19.2227 99.3867 19.6289 99.457 19.9258C99.5273 20.2227 99.6641 20.4414 99.8672 20.582C100.07 20.7305 100.352 20.8281 100.711 20.875C101.078 20.9141 101.582 20.9336 102.223 20.9336C102.848 20.9336 103.453 20.8984 104.039 20.8281C104.633 20.75 105.059 20.5859 105.316 20.3359C105.715 19.9375 106.121 19.3789 106.535 18.6602C106.957 17.9336 107.293 17.2695 107.543 16.668H108.398ZM121.043 11.7578C121.621 12.2969 122.062 12.9414 122.367 13.6914C122.672 14.4414 122.824 15.2539 122.824 16.1289C122.824 16.9961 122.672 17.8164 122.367 18.5898C122.07 19.3555 121.633 20.0117 121.055 20.5586C120.438 21.1445 119.699 21.5938 118.84 21.9062C117.988 22.2188 117.012 22.375 115.91 22.375C114.957 22.375 114.078 22.2383 113.273 21.9648C112.477 21.6914 111.77 21.2812 111.152 20.7344C110.559 20.2109 110.09 19.5664 109.746 18.8008C109.402 18.0273 109.23 17.1641 109.23 16.2109C109.23 15.2734 109.379 14.4414 109.676 13.7148C109.98 12.9805 110.434 12.3281 111.035 11.7578C111.613 11.2109 112.324 10.7891 113.168 10.4922C114.02 10.1875 114.969 10.0352 116.016 10.0352C117.109 10.0352 118.07 10.1875 118.898 10.4922C119.734 10.7891 120.449 11.2109 121.043 11.7578ZM118.043 19.8789C118.215 19.4414 118.34 18.9102 118.418 18.2852C118.504 17.6602 118.547 16.9336 118.547 16.1055C118.547 15.5586 118.508 14.9336 118.43 14.2305C118.352 13.5273 118.234 12.9727 118.078 12.5664C117.891 12.0742 117.629 11.6875 117.293 11.4062C116.965 11.125 116.547 10.9844 116.039 10.9844C115.484 10.9844 115.039 11.1367 114.703 11.4414C114.375 11.7461 114.121 12.1406 113.941 12.625C113.777 13.0703 113.664 13.5938 113.602 14.1953C113.539 14.7891 113.508 15.4102 113.508 16.0586C113.508 16.9102 113.535 17.6172 113.59 18.1797C113.645 18.7344 113.777 19.293 113.988 19.8555C114.168 20.3398 114.426 20.7227 114.762 21.0039C115.098 21.2852 115.523 21.4258 116.039 21.4258C116.508 21.4258 116.91 21.2969 117.246 21.0391C117.582 20.7734 117.848 20.3867 118.043 19.8789ZM137.73 21.7539C137.387 21.9023 136.98 22.0391 136.512 22.1641C136.043 22.2891 135.547 22.3516 135.023 22.3516C134.062 22.3516 133.355 22.2109 132.902 21.9297C132.449 21.6406 132.141 21.2305 131.977 20.6992H131.906C131.641 20.9648 131.383 21.1914 131.133 21.3789C130.891 21.5664 130.629 21.7266 130.348 21.8594C129.98 22.0312 129.625 22.1562 129.281 22.2344C128.945 22.3203 128.473 22.3633 127.863 22.3633C126.957 22.3633 126.184 22.0977 125.543 21.5664C124.902 21.0273 124.582 20.3164 124.582 19.4336C124.582 18.9258 124.652 18.4961 124.793 18.1445C124.934 17.7852 125.133 17.4688 125.391 17.1953C125.625 16.9453 125.895 16.7383 126.199 16.5742C126.512 16.4102 126.852 16.2578 127.219 16.1172C127.922 15.8594 128.766 15.5938 129.75 15.3203C130.734 15.0391 131.453 14.7891 131.906 14.5703V13.4453C131.906 13.25 131.891 12.9922 131.859 12.6719C131.828 12.3516 131.762 12.082 131.66 11.8633C131.551 11.6133 131.379 11.4023 131.145 11.2305C130.91 11.0586 130.602 10.9727 130.219 10.9727C129.875 10.9727 129.586 11.0234 129.352 11.125C129.125 11.2188 128.941 11.3164 128.801 11.418C128.824 11.5742 128.891 11.8125 129 12.1328C129.109 12.4531 129.164 12.7617 129.164 13.0586C129.164 13.1914 129.129 13.3594 129.059 13.5625C128.988 13.7578 128.887 13.9141 128.754 14.0312C128.574 14.1875 128.371 14.3086 128.145 14.3945C127.926 14.4805 127.586 14.5234 127.125 14.5234C126.469 14.5234 125.973 14.3672 125.637 14.0547C125.301 13.7344 125.133 13.3203 125.133 12.8125C125.133 12.375 125.305 11.9844 125.648 11.6406C126 11.2891 126.426 11 126.926 10.7734C127.418 10.5391 127.984 10.3594 128.625 10.2344C129.266 10.1016 129.859 10.0352 130.406 10.0352C131.164 10.0352 131.859 10.082 132.492 10.1758C133.125 10.2617 133.695 10.4453 134.203 10.7266C134.688 11 135.07 11.3984 135.352 11.9219C135.641 12.4375 135.785 13.1133 135.785 13.9492C135.785 14.832 135.766 15.8789 135.727 17.0898C135.695 18.3008 135.68 19.0977 135.68 19.4805C135.68 19.832 135.73 20.1094 135.832 20.3125C135.941 20.5156 136.105 20.668 136.324 20.7695C136.457 20.832 136.664 20.8711 136.945 20.8867C137.234 20.8945 137.496 20.8984 137.73 20.8984V21.7539ZM131.906 15.6484C131.469 15.7969 131.035 15.9688 130.605 16.1641C130.176 16.3516 129.824 16.5508 129.551 16.7617C129.262 16.9805 129.035 17.2617 128.871 17.6055C128.707 17.9414 128.625 18.3398 128.625 18.8008C128.625 19.4102 128.762 19.8516 129.035 20.125C129.316 20.3984 129.66 20.5352 130.066 20.5352C130.496 20.5352 130.848 20.4492 131.121 20.2773C131.402 20.0977 131.648 19.8789 131.859 19.6211L131.906 15.6484ZM154.102 22H147.047V21.1445C147.195 21.1289 147.375 21.1094 147.586 21.0859C147.797 21.0625 147.957 21.0234 148.066 20.9688C148.23 20.8828 148.348 20.7578 148.418 20.5938C148.488 20.4297 148.523 20.1875 148.523 19.8672V14.3828C148.523 13.5859 148.375 12.9883 148.078 12.5898C147.789 12.1836 147.359 11.9805 146.789 11.9805C146.477 11.9805 146.184 12.0273 145.91 12.1211C145.645 12.2148 145.383 12.3516 145.125 12.5312C144.898 12.6875 144.715 12.8477 144.574 13.0117C144.441 13.1758 144.328 13.3203 144.234 13.4453V19.7383C144.234 20.0117 144.273 20.2422 144.352 20.4297C144.43 20.6094 144.559 20.7461 144.738 20.8398C144.863 20.9102 145.02 20.9727 145.207 21.0273C145.395 21.082 145.578 21.1211 145.758 21.1445V22H138.633V21.1445C138.828 21.1289 139.023 21.1094 139.219 21.0859C139.422 21.0547 139.594 21.0156 139.734 20.9688C139.984 20.8828 140.156 20.75 140.25 20.5703C140.344 20.3906 140.391 20.1562 140.391 19.8672V13.0469C140.391 12.8047 140.328 12.5664 140.203 12.332C140.078 12.0977 139.914 11.9062 139.711 11.7578C139.57 11.6641 139.391 11.5859 139.172 11.5234C138.961 11.4609 138.727 11.418 138.469 11.3945V10.5391L144.059 10.2344L144.234 10.4102V12.1094H144.281C144.5 11.9141 144.766 11.6797 145.078 11.4062C145.391 11.1328 145.68 10.9102 145.945 10.7383C146.234 10.5508 146.613 10.3906 147.082 10.2578C147.551 10.125 148.051 10.0586 148.582 10.0586C149.855 10.0586 150.809 10.4219 151.441 11.1484C152.082 11.8672 152.402 12.8242 152.402 14.0195V19.7617C152.402 20.0508 152.445 20.2812 152.531 20.4531C152.617 20.625 152.777 20.7617 153.012 20.8633C153.137 20.918 153.289 20.9727 153.469 21.0273C153.656 21.082 153.867 21.1211 154.102 21.1445V22Z" fill="white"/>
<path d="M175.421 7.37349C175.637 6.86104 176.363 6.86104 176.579 7.37349L177.384 9.28104C177.547 9.6685 178.037 9.78937 178.362 9.52222L179.961 8.20699C180.39 7.85366 181.033 8.19113 180.987 8.74531L180.812 10.8082C180.777 11.2272 181.155 11.5621 181.567 11.4765L183.593 11.0549C184.138 10.9416 184.55 11.5392 184.251 12.0082L183.139 13.7538C182.912 14.1084 183.092 14.5806 183.496 14.6961L185.487 15.2647C186.021 15.4174 186.109 16.1383 185.626 16.4146L183.829 17.4431C183.465 17.652 183.404 18.1534 183.708 18.4435L185.206 19.8721C185.609 20.2558 185.351 20.9348 184.796 20.9552L182.727 21.0308C182.307 21.0462 182.02 21.4619 182.154 21.8603L182.817 23.8215C182.995 24.3483 182.452 24.8299 181.95 24.5896L180.083 23.6952C179.704 23.5135 179.257 23.7482 179.191 24.1636L178.866 26.2082C178.779 26.7574 178.074 26.9312 177.741 26.4854L176.504 24.8258C176.253 24.4887 175.747 24.4887 175.496 24.8258L174.259 26.4854C173.926 26.9312 173.221 26.7574 173.134 26.2082L172.809 24.1636C172.743 23.7482 172.296 23.5135 171.917 23.6952L170.05 24.5896C169.548 24.8299 169.005 24.3483 169.183 23.8215L169.846 21.8603C169.98 21.4619 169.693 21.0462 169.273 21.0308L167.204 20.9552C166.649 20.9348 166.391 20.2558 166.794 19.8721L168.292 18.4435C168.596 18.1534 168.535 17.652 168.171 17.4431L166.374 16.4146C165.891 16.1383 165.979 15.4174 166.513 15.2647L168.504 14.6961C168.908 14.5806 169.088 14.1084 168.861 13.7538L167.749 12.0082C167.45 11.5392 167.862 10.9416 168.407 11.0549L170.433 11.4765C170.845 11.5621 171.223 11.2272 171.188 10.8082L171.013 8.74531C170.967 8.19113 171.61 7.85366 172.039 8.20699L173.638 9.52222C173.963 9.78937 174.453 9.6685 174.616 9.28104L175.421 7.37349Z" fill="#00CCFF"/>
<path d="M214.492 14.3711C214.992 14.7148 215.398 15.1484 215.711 15.6719C216.023 16.1875 216.18 16.7969 216.18 17.5C216.18 18.3438 216 19.0586 215.641 19.6445C215.289 20.2227 214.781 20.6797 214.117 21.0156C213.414 21.375 212.602 21.6289 211.68 21.7773C210.766 21.9258 209.688 22 208.445 22H199.809V21.0859C200.051 21.0625 200.355 21.0273 200.723 20.9805C201.09 20.9336 201.348 20.8789 201.496 20.8164C201.785 20.6992 201.98 20.5469 202.082 20.3594C202.191 20.1641 202.246 19.9141 202.246 19.6094V7.89062C202.246 7.60938 202.203 7.375 202.117 7.1875C202.031 7 201.824 6.83594 201.496 6.69531C201.254 6.59375 200.973 6.51172 200.652 6.44922C200.332 6.37891 200.051 6.32422 199.809 6.28516V5.37109H208.844C211.117 5.37109 212.758 5.68359 213.766 6.30859C214.773 6.93359 215.277 7.85547 215.277 9.07422C215.277 9.63672 215.164 10.1328 214.938 10.5625C214.711 10.9844 214.387 11.3516 213.965 11.6641C213.582 11.9531 213.125 12.2031 212.594 12.4141C212.062 12.625 211.492 12.8008 210.883 12.9414V13.1641C211.492 13.2266 212.125 13.3633 212.781 13.5742C213.438 13.7773 214.008 14.043 214.492 14.3711ZM210.719 9.36719C210.719 8.44531 210.457 7.72656 209.934 7.21094C209.418 6.69531 208.641 6.4375 207.602 6.4375C207.453 6.4375 207.258 6.44531 207.016 6.46094C206.781 6.46875 206.578 6.47656 206.406 6.48438V12.6484H207.016C208.281 12.6484 209.215 12.3555 209.816 11.7695C210.418 11.1758 210.719 10.375 210.719 9.36719ZM211.539 17.3477C211.539 16.1914 211.195 15.3047 210.508 14.6875C209.82 14.0703 208.832 13.7617 207.543 13.7617C207.395 13.7617 207.195 13.7695 206.945 13.7852C206.703 13.793 206.523 13.8008 206.406 13.8086V19.8906C206.477 20.1797 206.695 20.4258 207.062 20.6289C207.43 20.8242 207.875 20.9219 208.398 20.9219C209.328 20.9219 210.082 20.6094 210.66 19.9844C211.246 19.3594 211.539 18.4805 211.539 17.3477ZM233.16 21.7539L227.57 22.0938L227.395 21.9297V20.3945H227.324C227.059 20.6367 226.797 20.875 226.539 21.1094C226.289 21.3359 225.988 21.543 225.637 21.7305C225.238 21.9414 224.859 22.0977 224.5 22.1992C224.148 22.3008 223.633 22.3516 222.953 22.3516C221.773 22.3516 220.867 21.9961 220.234 21.2852C219.609 20.5742 219.297 19.5703 219.297 18.2734V13C219.297 12.6953 219.238 12.4492 219.121 12.2617C219.004 12.0664 218.848 11.8945 218.652 11.7461C218.496 11.6289 218.293 11.5469 218.043 11.5C217.793 11.4453 217.566 11.4102 217.363 11.3945V10.5391L223.047 10.2344L223.176 10.4102V18.2031C223.176 19.0078 223.328 19.6016 223.633 19.9844C223.945 20.3672 224.371 20.5586 224.91 20.5586C225.465 20.5586 225.961 20.4141 226.398 20.125C226.844 19.8359 227.168 19.5273 227.371 19.1992V12.8828C227.371 12.6172 227.32 12.3789 227.219 12.168C227.117 11.957 226.969 11.7852 226.773 11.6523C226.633 11.5586 226.43 11.4961 226.164 11.4648C225.906 11.4336 225.641 11.4102 225.367 11.3945V10.5391L231.051 10.2344L231.227 10.4102V19.457C231.227 19.7305 231.281 19.9648 231.391 20.1602C231.5 20.3477 231.66 20.5078 231.871 20.6406C232.02 20.7344 232.211 20.8008 232.445 20.8398C232.688 20.8711 232.926 20.8906 233.16 20.8984V21.7539ZM247.352 11.2305C247 11.2852 246.656 11.418 246.32 11.6289C245.992 11.8398 245.719 12.168 245.5 12.6133C244.828 14.0352 244.137 15.5508 243.426 17.1602C242.715 18.7617 241.926 20.4961 241.059 22.3633C240.574 23.4102 240.105 24.2461 239.652 24.8711C239.199 25.4961 238.773 25.9766 238.375 26.3125C238 26.625 237.629 26.8516 237.262 26.9922C236.895 27.1328 236.523 27.2031 236.148 27.2031C235.406 27.2031 234.805 26.9961 234.344 26.582C233.891 26.168 233.664 25.7031 233.664 25.1875C233.664 24.9688 233.688 24.7656 233.734 24.5781C233.789 24.3906 233.898 24.1953 234.062 23.9922C234.188 23.8203 234.379 23.6719 234.637 23.5469C234.902 23.4297 235.199 23.3711 235.527 23.3711C235.965 23.3711 236.383 23.5234 236.781 23.8281C237.18 24.1328 237.594 24.5547 238.023 25.0938C238.281 24.8359 238.598 24.4492 238.973 23.9336C239.355 23.4258 239.637 22.9023 239.816 22.3633C238.887 20.4102 238.062 18.7188 237.344 17.2891C236.625 15.8516 235.82 14.25 234.93 12.4844C234.734 12.1094 234.473 11.8203 234.145 11.6172C233.816 11.4062 233.469 11.2773 233.102 11.2305V10.375H240.273V11.2305C240.008 11.2383 239.699 11.2969 239.348 11.4062C239.004 11.5156 238.832 11.6562 238.832 11.8281C238.832 11.8906 238.844 11.9609 238.867 12.0391C238.891 12.1094 238.934 12.2148 238.996 12.3555C239.262 12.9023 239.637 13.6641 240.121 14.6406C240.613 15.6094 241.184 16.7461 241.832 18.0508C242.316 16.9414 242.727 15.9883 243.062 15.1914C243.406 14.3867 243.738 13.5977 244.059 12.8242C244.137 12.6289 244.18 12.4766 244.188 12.3672C244.203 12.25 244.211 12.1719 244.211 12.1328C244.211 11.9922 244.141 11.8711 244 11.7695C243.867 11.6602 243.707 11.5664 243.52 11.4883C243.324 11.4102 243.137 11.3516 242.957 11.3125C242.777 11.2734 242.629 11.2461 242.512 11.2305V10.375H247.352V11.2305ZM265.668 11.7578C266.246 12.2969 266.688 12.9414 266.992 13.6914C267.297 14.4414 267.449 15.2539 267.449 16.1289C267.449 16.9961 267.297 17.8164 266.992 18.5898C266.695 19.3555 266.258 20.0117 265.68 20.5586C265.062 21.1445 264.324 21.5938 263.465 21.9062C262.613 22.2188 261.637 22.375 260.535 22.375C259.582 22.375 258.703 22.2383 257.898 21.9648C257.102 21.6914 256.395 21.2812 255.777 20.7344C255.184 20.2109 254.715 19.5664 254.371 18.8008C254.027 18.0273 253.855 17.1641 253.855 16.2109C253.855 15.2734 254.004 14.4414 254.301 13.7148C254.605 12.9805 255.059 12.3281 255.66 11.7578C256.238 11.2109 256.949 10.7891 257.793 10.4922C258.645 10.1875 259.594 10.0352 260.641 10.0352C261.734 10.0352 262.695 10.1875 263.523 10.4922C264.359 10.7891 265.074 11.2109 265.668 11.7578ZM262.668 19.8789C262.84 19.4414 262.965 18.9102 263.043 18.2852C263.129 17.6602 263.172 16.9336 263.172 16.1055C263.172 15.5586 263.133 14.9336 263.055 14.2305C262.977 13.5273 262.859 12.9727 262.703 12.5664C262.516 12.0742 262.254 11.6875 261.918 11.4062C261.59 11.125 261.172 10.9844 260.664 10.9844C260.109 10.9844 259.664 11.1367 259.328 11.4414C259 11.7461 258.746 12.1406 258.566 12.625C258.402 13.0703 258.289 13.5938 258.227 14.1953C258.164 14.7891 258.133 15.4102 258.133 16.0586C258.133 16.9102 258.16 17.6172 258.215 18.1797C258.27 18.7344 258.402 19.293 258.613 19.8555C258.793 20.3398 259.051 20.7227 259.387 21.0039C259.723 21.2852 260.148 21.4258 260.664 21.4258C261.133 21.4258 261.535 21.2969 261.871 21.0391C262.207 20.7734 262.473 20.3867 262.668 19.8789ZM284.43 22H277.375V21.1445C277.523 21.1289 277.703 21.1094 277.914 21.0859C278.125 21.0625 278.285 21.0234 278.395 20.9688C278.559 20.8828 278.676 20.7578 278.746 20.5938C278.816 20.4297 278.852 20.1875 278.852 19.8672V14.3828C278.852 13.5859 278.703 12.9883 278.406 12.5898C278.117 12.1836 277.688 11.9805 277.117 11.9805C276.805 11.9805 276.512 12.0273 276.238 12.1211C275.973 12.2148 275.711 12.3516 275.453 12.5312C275.227 12.6875 275.043 12.8477 274.902 13.0117C274.77 13.1758 274.656 13.3203 274.562 13.4453V19.7383C274.562 20.0117 274.602 20.2422 274.68 20.4297C274.758 20.6094 274.887 20.7461 275.066 20.8398C275.191 20.9102 275.348 20.9727 275.535 21.0273C275.723 21.082 275.906 21.1211 276.086 21.1445V22H268.961V21.1445C269.156 21.1289 269.352 21.1094 269.547 21.0859C269.75 21.0547 269.922 21.0156 270.062 20.9688C270.312 20.8828 270.484 20.75 270.578 20.5703C270.672 20.3906 270.719 20.1562 270.719 19.8672V13.0469C270.719 12.8047 270.656 12.5664 270.531 12.332C270.406 12.0977 270.242 11.9062 270.039 11.7578C269.898 11.6641 269.719 11.5859 269.5 11.5234C269.289 11.4609 269.055 11.418 268.797 11.3945V10.5391L274.387 10.2344L274.562 10.4102V12.1094H274.609C274.828 11.9141 275.094 11.6797 275.406 11.4062C275.719 11.1328 276.008 10.9102 276.273 10.7383C276.562 10.5508 276.941 10.3906 277.41 10.2578C277.879 10.125 278.379 10.0586 278.91 10.0586C280.184 10.0586 281.137 10.4219 281.77 11.1484C282.41 11.8672 282.73 12.8242 282.73 14.0195V19.7617C282.73 20.0508 282.773 20.2812 282.859 20.4531C282.945 20.625 283.105 20.7617 283.34 20.8633C283.465 20.918 283.617 20.9727 283.797 21.0273C283.984 21.082 284.195 21.1211 284.43 21.1445V22ZM307.398 16.668L307.07 22H291.754V21.0859C292.027 21.0625 292.348 21.0273 292.715 20.9805C293.082 20.9258 293.324 20.875 293.441 20.8281C293.723 20.7188 293.918 20.5664 294.027 20.3711C294.137 20.1758 294.191 19.9258 294.191 19.6211V7.89062C294.191 7.60938 294.148 7.37891 294.062 7.19922C293.977 7.01172 293.77 6.84375 293.441 6.69531C293.199 6.58594 292.906 6.5 292.562 6.4375C292.227 6.36719 291.957 6.31641 291.754 6.28516V5.37109H300.883V6.28516C300.633 6.30859 300.336 6.34375 299.992 6.39062C299.656 6.42969 299.363 6.48828 299.113 6.56641C298.809 6.66797 298.605 6.82812 298.504 7.04688C298.402 7.25781 298.352 7.5 298.352 7.77344V18.707C298.352 19.2227 298.387 19.6289 298.457 19.9258C298.527 20.2227 298.664 20.4414 298.867 20.582C299.07 20.7305 299.352 20.8281 299.711 20.875C300.078 20.9141 300.582 20.9336 301.223 20.9336C301.848 20.9336 302.453 20.8984 303.039 20.8281C303.633 20.75 304.059 20.5859 304.316 20.3359C304.715 19.9375 305.121 19.3789 305.535 18.6602C305.957 17.9336 306.293 17.2695 306.543 16.668H307.398ZM320.043 11.7578C320.621 12.2969 321.062 12.9414 321.367 13.6914C321.672 14.4414 321.824 15.2539 321.824 16.1289C321.824 16.9961 321.672 17.8164 321.367 18.5898C321.07 19.3555 320.633 20.0117 320.055 20.5586C319.438 21.1445 318.699 21.5938 317.84 21.9062C316.988 22.2188 316.012 22.375 314.91 22.375C313.957 22.375 313.078 22.2383 312.273 21.9648C311.477 21.6914 310.77 21.2812 310.152 20.7344C309.559 20.2109 309.09 19.5664 308.746 18.8008C308.402 18.0273 308.23 17.1641 308.23 16.2109C308.23 15.2734 308.379 14.4414 308.676 13.7148C308.98 12.9805 309.434 12.3281 310.035 11.7578C310.613 11.2109 311.324 10.7891 312.168 10.4922C313.02 10.1875 313.969 10.0352 315.016 10.0352C316.109 10.0352 317.07 10.1875 317.898 10.4922C318.734 10.7891 319.449 11.2109 320.043 11.7578ZM317.043 19.8789C317.215 19.4414 317.34 18.9102 317.418 18.2852C317.504 17.6602 317.547 16.9336 317.547 16.1055C317.547 15.5586 317.508 14.9336 317.43 14.2305C317.352 13.5273 317.234 12.9727 317.078 12.5664C316.891 12.0742 316.629 11.6875 316.293 11.4062C315.965 11.125 315.547 10.9844 315.039 10.9844C314.484 10.9844 314.039 11.1367 313.703 11.4414C313.375 11.7461 313.121 12.1406 312.941 12.625C312.777 13.0703 312.664 13.5938 312.602 14.1953C312.539 14.7891 312.508 15.4102 312.508 16.0586C312.508 16.9102 312.535 17.6172 312.59 18.1797C312.645 18.7344 312.777 19.293 312.988 19.8555C313.168 20.3398 313.426 20.7227 313.762 21.0039C314.098 21.2852 314.523 21.4258 315.039 21.4258C315.508 21.4258 315.91 21.2969 316.246 21.0391C316.582 20.7734 316.848 20.3867 317.043 19.8789ZM336.73 21.7539C336.387 21.9023 335.98 22.0391 335.512 22.1641C335.043 22.2891 334.547 22.3516 334.023 22.3516C333.062 22.3516 332.355 22.2109 331.902 21.9297C331.449 21.6406 331.141 21.2305 330.977 20.6992H330.906C330.641 20.9648 330.383 21.1914 330.133 21.3789C329.891 21.5664 329.629 21.7266 329.348 21.8594C328.98 22.0312 328.625 22.1562 328.281 22.2344C327.945 22.3203 327.473 22.3633 326.863 22.3633C325.957 22.3633 325.184 22.0977 324.543 21.5664C323.902 21.0273 323.582 20.3164 323.582 19.4336C323.582 18.9258 323.652 18.4961 323.793 18.1445C323.934 17.7852 324.133 17.4688 324.391 17.1953C324.625 16.9453 324.895 16.7383 325.199 16.5742C325.512 16.4102 325.852 16.2578 326.219 16.1172C326.922 15.8594 327.766 15.5938 328.75 15.3203C329.734 15.0391 330.453 14.7891 330.906 14.5703V13.4453C330.906 13.25 330.891 12.9922 330.859 12.6719C330.828 12.3516 330.762 12.082 330.66 11.8633C330.551 11.6133 330.379 11.4023 330.145 11.2305C329.91 11.0586 329.602 10.9727 329.219 10.9727C328.875 10.9727 328.586 11.0234 328.352 11.125C328.125 11.2188 327.941 11.3164 327.801 11.418C327.824 11.5742 327.891 11.8125 328 12.1328C328.109 12.4531 328.164 12.7617 328.164 13.0586C328.164 13.1914 328.129 13.3594 328.059 13.5625C327.988 13.7578 327.887 13.9141 327.754 14.0312C327.574 14.1875 327.371 14.3086 327.145 14.3945C326.926 14.4805 326.586 14.5234 326.125 14.5234C325.469 14.5234 324.973 14.3672 324.637 14.0547C324.301 13.7344 324.133 13.3203 324.133 12.8125C324.133 12.375 324.305 11.9844 324.648 11.6406C325 11.2891 325.426 11 325.926 10.7734C326.418 10.5391 326.984 10.3594 327.625 10.2344C328.266 10.1016 328.859 10.0352 329.406 10.0352C330.164 10.0352 330.859 10.082 331.492 10.1758C332.125 10.2617 332.695 10.4453 333.203 10.7266C333.688 11 334.07 11.3984 334.352 11.9219C334.641 12.4375 334.785 13.1133 334.785 13.9492C334.785 14.832 334.766 15.8789 334.727 17.0898C334.695 18.3008 334.68 19.0977 334.68 19.4805C334.68 19.832 334.73 20.1094 334.832 20.3125C334.941 20.5156 335.105 20.668 335.324 20.7695C335.457 20.832 335.664 20.8711 335.945 20.8867C336.234 20.8945 336.496 20.8984 336.73 20.8984V21.7539ZM330.906 15.6484C330.469 15.7969 330.035 15.9688 329.605 16.1641C329.176 16.3516 328.824 16.5508 328.551 16.7617C328.262 16.9805 328.035 17.2617 327.871 17.6055C327.707 17.9414 327.625 18.3398 327.625 18.8008C327.625 19.4102 327.762 19.8516 328.035 20.125C328.316 20.3984 328.66 20.5352 329.066 20.5352C329.496 20.5352 329.848 20.4492 330.121 20.2773C330.402 20.0977 330.648 19.8789 330.859 19.6211L330.906 15.6484ZM353.102 22H346.047V21.1445C346.195 21.1289 346.375 21.1094 346.586 21.0859C346.797 21.0625 346.957 21.0234 347.066 20.9688C347.23 20.8828 347.348 20.7578 347.418 20.5938C347.488 20.4297 347.523 20.1875 347.523 19.8672V14.3828C347.523 13.5859 347.375 12.9883 347.078 12.5898C346.789 12.1836 346.359 11.9805 345.789 11.9805C345.477 11.9805 345.184 12.0273 344.91 12.1211C344.645 12.2148 344.383 12.3516 344.125 12.5312C343.898 12.6875 343.715 12.8477 343.574 13.0117C343.441 13.1758 343.328 13.3203 343.234 13.4453V19.7383C343.234 20.0117 343.273 20.2422 343.352 20.4297C343.43 20.6094 343.559 20.7461 343.738 20.8398C343.863 20.9102 344.02 20.9727 344.207 21.0273C344.395 21.082 344.578 21.1211 344.758 21.1445V22H337.633V21.1445C337.828 21.1289 338.023 21.1094 338.219 21.0859C338.422 21.0547 338.594 21.0156 338.734 20.9688C338.984 20.8828 339.156 20.75 339.25 20.5703C339.344 20.3906 339.391 20.1562 339.391 19.8672V13.0469C339.391 12.8047 339.328 12.5664 339.203 12.332C339.078 12.0977 338.914 11.9062 338.711 11.7578C338.57 11.6641 338.391 11.5859 338.172 11.5234C337.961 11.4609 337.727 11.418 337.469 11.3945V10.5391L343.059 10.2344L343.234 10.4102V12.1094H343.281C343.5 11.9141 343.766 11.6797 344.078 11.4062C344.391 11.1328 344.68 10.9102 344.945 10.7383C345.234 10.5508 345.613 10.3906 346.082 10.2578C346.551 10.125 347.051 10.0586 347.582 10.0586C348.855 10.0586 349.809 10.4219 350.441 11.1484C351.082 11.8672 351.402 12.8242 351.402 14.0195V19.7617C351.402 20.0508 351.445 20.2812 351.531 20.4531C351.617 20.625 351.777 20.7617 352.012 20.8633C352.137 20.918 352.289 20.9727 352.469 21.0273C352.656 21.082 352.867 21.1211 353.102 21.1445V22Z" fill="white"/>
<path d="M374.421 7.37349C374.637 6.86104 375.363 6.86104 375.579 7.37349L376.384 9.28104C376.547 9.6685 377.037 9.78937 377.362 9.52222L378.961 8.20699C379.39 7.85366 380.033 8.19113 379.987 8.74531L379.812 10.8082C379.777 11.2272 380.155 11.5621 380.567 11.4765L382.593 11.0549C383.138 10.9416 383.55 11.5392 383.251 12.0082L382.139 13.7538C381.912 14.1084 382.092 14.5806 382.496 14.6961L384.487 15.2647C385.021 15.4174 385.109 16.1383 384.626 16.4146L382.829 17.4431C382.465 17.652 382.404 18.1534 382.708 18.4435L384.206 19.8721C384.609 20.2558 384.351 20.9348 383.796 20.9552L381.727 21.0308C381.307 21.0462 381.02 21.4619 381.154 21.8603L381.817 23.8215C381.995 24.3483 381.452 24.8299 380.95 24.5896L379.083 23.6952C378.704 23.5135 378.257 23.7482 378.191 24.1636L377.866 26.2082C377.779 26.7574 377.074 26.9312 376.741 26.4854L375.504 24.8258C375.253 24.4887 374.747 24.4887 374.496 24.8258L373.259 26.4854C372.926 26.9312 372.221 26.7574 372.134 26.2082L371.809 24.1636C371.743 23.7482 371.296 23.5135 370.917 23.6952L369.05 24.5896C368.548 24.8299 368.005 24.3483 368.183 23.8215L368.846 21.8603C368.98 21.4619 368.693 21.0462 368.273 21.0308L366.204 20.9552C365.649 20.9348 365.391 20.2558 365.794 19.8721L367.292 18.4435C367.596 18.1534 367.535 17.652 367.171 17.4431L365.374 16.4146C364.891 16.1383 364.979 15.4174 365.513 15.2647L367.504 14.6961C367.908 14.5806 368.088 14.1084 367.861 13.7538L366.749 12.0082C366.45 11.5392 366.862 10.9416 367.407 11.0549L369.433 11.4765C369.845 11.5621 370.223 11.2272 370.188 10.8082L370.013 8.74531C369.967 8.19113 370.61 7.85366 371.039 8.20699L372.638 9.52222C372.963 9.78937 373.453 9.6685 373.616 9.28104L374.421 7.37349Z" fill="#00CCFF"/>
</g>
<defs>
<clipPath id="clip0_200_2245">
<rect width="390" height="34" fill="white"/>
</clipPath>
</defs>
</svg>
